<svg width="262" height="219" viewBox="0 0 262 219" fill="none" xmlns="http://www.w3.org/2000/svg">
<path d="M5.10417 121.084C5.10417 121.084 19.1728 101.214 0 85.8094C0 85.8094 24.6344 92.3137 36.6156 62.3027C36.6156 62.3027 48.125 77.7646 63.4233 64.8131C63.4233 64.8131 64.6528 80.0754 85.6843 80.3892C85.6843 80.3892 76.2623 100.13 101.755 110.842C101.755 110.842 79.036 114.622 82.0528 142.137C82.0528 142.137 56.0172 131.339 40.5617 151.922C40.5617 151.922 34.2995 140.283 18.9298 142.594C18.9155 142.594 21.4461 126.718 5.10417 121.084Z" fill="#E9E9E9"/>
<path d="M144.89 154.495C144.89 154.495 161.932 130.417 138.699 111.746C138.699 111.746 168.552 119.634 183.078 83.2471C183.078 83.2471 197.018 101.975 215.562 86.2852C215.562 86.2852 217.063 104.785 242.527 105.156C242.527 105.156 231.103 129.077 262 142.057C262 142.057 234.463 146.635 238.123 179.984C238.123 179.984 206.569 166.904 187.839 191.852C187.839 191.852 180.247 177.745 161.618 180.54C161.618 180.569 164.692 161.327 144.89 154.495Z" fill="#E9E9E9"/>
<path d="M124.701 39.6676C124.701 39.6676 134.195 26.2596 121.255 15.8613C121.255 15.8613 137.883 20.2546 145.961 0C145.961 0 153.725 10.4268 164.047 1.68313C164.047 1.68313 164.877 11.9816 179.06 12.1955C179.06 12.1955 172.697 25.5179 189.911 32.7497C189.911 32.7497 174.585 35.3029 176.615 53.8743C176.615 53.8743 159.043 46.5855 148.606 60.4785C148.606 60.4785 144.389 52.6191 134.009 54.1881C134.023 54.1739 135.724 43.4618 124.701 39.6676Z" fill="#E9E9E9"/>
<path d="M92.8031 33.5039C93.375 33.347 93.8182 33.0189 94.1184 32.4911C94.4187 31.9634 94.4759 31.4071 94.3186 30.808C94.1613 30.2089 93.8182 29.7525 93.3035 29.453C92.7888 29.1391 92.2455 29.0678 91.6736 29.2247C91.0731 29.3816 90.6156 29.724 90.3153 30.2517C90.0151 30.7795 89.9293 31.3358 90.0866 31.9348C90.2438 32.5339 90.587 32.9904 91.116 33.2899C91.6307 33.5894 92.2026 33.6608 92.8031 33.5039ZM84.5535 9.6976L89.5004 26.8855L92.1311 26.1865L87.9563 8.79898L84.5535 9.6976Z" fill="#E9E9E9"/>
<path d="M31.8537 169.541C32.1254 168.941 32.154 168.328 31.9109 167.715C31.6679 167.101 31.2389 166.645 30.6241 166.345C29.9951 166.06 29.3803 166.017 28.7512 166.246C28.1221 166.46 27.6646 166.873 27.3929 167.472C27.107 168.1 27.0784 168.727 27.3071 169.355C27.5359 169.983 27.9648 170.453 28.5939 170.739C29.223 171.024 29.8521 171.053 30.4812 170.824C31.096 170.596 31.5535 170.168 31.8537 169.541ZM5.66089 159.713L23.8329 167.658L25.1053 164.933L7.29079 156.19L5.66089 159.713Z" fill="#E9E9E9"/>
<path d="M193.672 68.7038C194.287 69.1887 194.973 69.3742 195.745 69.2743C196.517 69.1745 197.16 68.8036 197.647 68.176C198.147 67.5484 198.361 66.8352 198.276 66.065C198.19 65.2947 197.847 64.6671 197.246 64.1822C196.617 63.6829 195.902 63.4832 195.116 63.5688C194.33 63.6544 193.686 64.0253 193.186 64.6529C192.685 65.2805 192.485 65.9937 192.571 66.7782C192.671 67.5627 193.029 68.2045 193.672 68.7038ZM212.001 41.5455L197.975 60.0885L200.749 62.2708L215.576 44.3555L212.001 41.5455Z" fill="#E9E9E9"/>
<path d="M50.0595 180.38C50.0595 180.38 48.0149 190.379 47.1714 201.69H73.9504L75.0513 189.58C75.0513 189.565 69.5611 180.294 50.0595 180.38Z" fill="#FFC89F"/>
<path d="M189.716 162.143C189.559 162.3 179.522 172.242 178.936 201.682H74.9083C74.9083 201.682 75.666 195.363 72.6779 191.526C72.6779 191.526 58.023 189.986 49.6734 179.916C49.6734 179.916 48.4438 151.93 63.7849 136.582C65.5006 134.856 67.8168 133.858 70.2616 133.801C70.2616 133.801 74.3221 131.804 80.3985 129.308C86.4749 126.826 94.5529 123.845 102.588 121.905C102.588 121.905 105.648 113.746 112.41 121.291C126.865 137.452 144.808 109.467 151.728 120.15C154.788 123.174 159.992 116.071 162.551 120.849C162.551 120.849 168.156 120.207 169.686 121.805C169.686 121.805 176.534 120.607 181.095 123.117C181.095 123.117 193.462 122.09 202.47 125.813C202.484 125.842 220.999 163.812 189.716 162.143Z" fill="#1DA1F2"/>
<path d="M145.691 119.589V102.53H110.662V118.762C110.662 120.317 109.39 121.558 107.831 121.529L107.359 121.515C107.359 121.515 103.242 132.441 108.689 144.665C108.689 144.665 117.739 150.1 122.872 160.427C122.872 160.427 132.137 148.959 138.428 146.12C138.428 146.12 148.035 137.519 148.421 122.357C146.906 122.328 145.691 121.101 145.691 119.589Z" fill="#FFC89F"/>
<path d="M128.177 126.967C115.295 126.967 104.844 116.541 104.844 103.689V75.2611C104.844 62.4094 115.295 51.9826 128.177 51.9826C141.059 51.9826 151.51 62.4094 151.51 75.2611V103.689C151.51 116.555 141.073 126.967 128.177 126.967Z" fill="#FFC89F"/>
<path d="M128.178 126.972C126.162 127.143 124.117 126.972 122.13 126.515C121.629 126.401 121.143 126.259 120.657 126.116C120.171 125.973 119.699 125.774 119.213 125.617C118.97 125.545 118.741 125.417 118.513 125.317L117.812 125.003C117.355 124.789 116.911 124.533 116.454 124.304C116.011 124.048 115.582 123.762 115.153 123.491C114.724 123.206 114.323 122.892 113.909 122.593C113.509 122.279 113.122 121.937 112.736 121.609C112.35 121.266 111.993 120.895 111.636 120.553C110.22 119.084 109.019 117.415 108.147 115.604C109.334 117.23 110.635 118.742 112.093 120.082C112.465 120.41 112.837 120.739 113.208 121.052C113.594 121.352 113.98 121.666 114.381 121.965C114.795 122.236 115.181 122.536 115.596 122.807C116.025 123.064 116.425 123.335 116.868 123.577C117.297 123.805 117.726 124.062 118.169 124.276C118.613 124.476 119.056 124.704 119.513 124.889C119.971 125.075 120.428 125.274 120.886 125.431L121.587 125.66C121.815 125.731 122.058 125.831 122.287 125.888C124.203 126.458 126.176 126.801 128.178 126.972Z" fill="#FA996E"/>
<path d="M149.023 114.153C148.709 115.18 148.237 116.15 147.679 117.063C147.536 117.291 147.393 117.519 147.25 117.733L146.778 118.389C146.621 118.603 146.45 118.803 146.278 119.017L145.749 119.63C145.02 120.429 144.219 121.156 143.361 121.784C142.504 122.426 141.574 122.982 140.588 123.396C141.388 122.682 142.175 121.998 142.947 121.285C143.704 120.571 144.434 119.83 145.134 119.059L145.663 118.489C145.835 118.289 145.992 118.09 146.164 117.89L146.664 117.291C146.821 117.077 146.993 116.877 147.15 116.677C147.779 115.879 148.394 115.023 149.023 114.153Z" fill="#FA996E"/>
<path d="M104.045 102.771H105.26C107.662 102.771 109.607 100.831 109.607 98.4344V90.7035C109.607 88.3071 107.662 86.3673 105.26 86.3673H104.045C101.643 86.3673 99.6987 88.3071 99.6987 90.7035V98.4344C99.6987 100.831 101.643 102.771 104.045 102.771Z" fill="#FFC89F"/>
<path d="M151.115 102.771H152.33C154.732 102.771 156.676 100.831 156.676 98.4344V90.7035C156.676 88.3071 154.732 86.3673 152.33 86.3673H151.115C148.713 86.3673 146.768 88.3071 146.768 90.7035V98.4344C146.783 100.831 148.727 102.771 151.115 102.771Z" fill="#FFC89F"/>
<path d="M103.703 90.9558C103.231 91.1127 102.916 91.4693 102.73 91.8544C102.53 92.2395 102.416 92.6817 102.344 93.1239C102.23 94.0082 102.287 94.9211 102.53 95.7627C102.659 96.1763 102.845 96.5757 103.088 96.8895C103.202 97.0464 103.374 97.2033 103.474 97.2604C103.502 97.2746 103.502 97.2746 103.502 97.2746L103.488 97.2889C103.502 97.3031 103.545 97.2461 103.588 97.1605C103.674 97.0036 103.717 96.7754 103.76 96.5614C103.803 96.3332 103.831 96.105 103.86 95.8768C103.917 95.4061 103.931 94.9354 103.974 94.4504C104.117 94.9211 104.203 95.3918 104.26 95.8768C104.289 96.1192 104.303 96.3617 104.303 96.6185C104.303 96.8752 104.275 97.132 104.189 97.4173C104.132 97.5599 104.074 97.7168 103.874 97.8737C103.774 97.945 103.645 97.9878 103.531 98.0021C103.402 98.0163 103.302 97.9878 103.217 97.9593C102.873 97.8166 102.688 97.6312 102.502 97.4315C102.13 97.0321 101.887 96.5329 101.73 96.0479C101.429 95.0495 101.415 94.0082 101.687 93.024C101.83 92.539 102.044 92.0541 102.373 91.6547C102.545 91.455 102.745 91.2838 102.973 91.1555C103.202 91.0128 103.445 90.9415 103.703 90.9558Z" fill="#FA996E"/>
<path d="M104.546 93.0129C104.418 92.7133 104.361 92.4281 104.318 92.157C104.275 91.886 104.232 91.6293 104.203 91.4011C104.175 91.1586 104.132 90.9446 104.075 90.7877C104.046 90.7021 104.003 90.6308 103.917 90.5595C103.832 90.4882 103.703 90.4311 103.546 90.3741C103.66 90.26 103.817 90.1744 104.003 90.1601C104.189 90.1458 104.403 90.2172 104.561 90.3455C104.875 90.6166 104.99 90.9732 105.033 91.287C105.075 91.6008 105.047 91.9146 104.975 92.1998C104.89 92.4851 104.761 92.7561 104.546 93.0129Z" fill="#FA996E"/>
<path d="M152.858 90.9561C153.101 90.9418 153.358 90.9989 153.587 91.1273C153.816 91.2414 154.016 91.4268 154.187 91.6265C154.516 92.0259 154.731 92.5109 154.874 92.9958C155.145 93.98 155.131 95.0213 154.831 96.0197C154.674 96.519 154.431 97.004 154.059 97.4033C153.859 97.603 153.687 97.7885 153.344 97.9311C153.258 97.9596 153.144 97.9882 153.029 97.9739C152.901 97.9739 152.772 97.9168 152.686 97.8455C152.5 97.7029 152.429 97.5317 152.372 97.3891C152.272 97.1038 152.257 96.847 152.257 96.5903C152.257 96.3336 152.272 96.0911 152.3 95.8486C152.357 95.3636 152.443 94.8929 152.586 94.4222C152.615 94.9072 152.643 95.3779 152.701 95.8486C152.729 96.0768 152.758 96.3193 152.801 96.5333C152.844 96.7472 152.901 96.9754 152.972 97.1323C153.015 97.2037 153.072 97.2607 153.072 97.2607L153.058 97.2464C153.058 97.2464 153.072 97.2464 153.087 97.2322C153.187 97.1894 153.358 97.0182 153.473 96.8613C153.73 96.5475 153.902 96.1481 154.03 95.7345C154.273 94.8929 154.33 93.98 154.216 93.0957C154.145 92.6535 154.044 92.2113 153.83 91.8262C153.644 91.4696 153.33 91.1273 152.858 90.9561Z" fill="#FA996E"/>
<path d="M152.013 93.0129C151.798 92.7704 151.67 92.4851 151.584 92.1998C151.512 91.9146 151.484 91.6008 151.527 91.287C151.57 90.9732 151.684 90.6166 151.999 90.3455C152.156 90.2172 152.37 90.1458 152.556 90.1601C152.742 90.1886 152.899 90.26 153.014 90.3741C152.856 90.4311 152.728 90.4882 152.642 90.5595C152.556 90.6308 152.513 90.7021 152.485 90.7877C152.427 90.9446 152.385 91.1586 152.356 91.4011C152.327 91.6435 152.285 91.9003 152.242 92.157C152.199 92.4281 152.127 92.6991 152.013 93.0129Z" fill="#FA996E"/>
<path d="M140.692 90.0772C141.852 90.0772 142.793 89.1384 142.793 87.9804C142.793 86.8224 141.852 85.8836 140.692 85.8836C139.531 85.8836 138.59 86.8224 138.59 87.9804C138.59 89.1384 139.531 90.0772 140.692 90.0772Z" fill="#1B1B2F"/>
<path d="M145.022 84.6545C144.35 84.2408 143.649 83.9128 142.934 83.6845C142.205 83.4706 141.462 83.3422 140.718 83.3707C140.532 83.3565 140.346 83.3993 140.161 83.3993L139.875 83.4278C139.774 83.442 139.689 83.4706 139.603 83.4848L139.045 83.5847C138.859 83.6417 138.688 83.6988 138.502 83.7416L138.23 83.8272L137.959 83.9413L137.415 84.1552C137.058 84.3121 136.729 84.4976 136.357 84.6545C136.658 84.3977 136.958 84.141 137.287 83.9127L137.801 83.6132L138.059 83.4706L138.33 83.3565C138.516 83.2851 138.702 83.1996 138.888 83.1282C139.088 83.0712 139.274 83.0284 139.474 82.9713C139.574 82.9428 139.674 82.9143 139.775 82.9L140.075 82.8715C140.275 82.8572 140.475 82.8144 140.69 82.8287C141.504 82.8144 142.319 82.9856 143.063 83.2994C143.821 83.5989 144.493 84.0554 145.022 84.6545Z" fill="#1B1B2F"/>
<path d="M118.642 90.0772C119.803 90.0772 120.744 89.1384 120.744 87.9804C120.744 86.8224 119.803 85.8836 118.642 85.8836C117.481 85.8836 116.541 86.8224 116.541 87.9804C116.541 89.1384 117.481 90.0772 118.642 90.0772Z" fill="#1B1B2F"/>
<path d="M122.976 84.6545C122.304 84.2408 121.604 83.9128 120.889 83.6845C120.16 83.4706 119.416 83.3422 118.673 83.3707C118.487 83.3565 118.301 83.3993 118.115 83.3993L117.829 83.4278C117.729 83.442 117.644 83.4706 117.558 83.4848L117 83.5847C116.814 83.6417 116.643 83.6988 116.457 83.7416L116.185 83.8272L115.914 83.9413L115.37 84.1552C115.013 84.3121 114.684 84.4976 114.312 84.6545C114.613 84.3977 114.913 84.141 115.242 83.9127L115.756 83.6132L116.014 83.4706L116.285 83.3565C116.471 83.2851 116.657 83.1996 116.843 83.1282C117.043 83.0712 117.229 83.0284 117.429 82.9713C117.529 82.9428 117.629 82.9143 117.729 82.9L118.03 82.8715C118.23 82.8572 118.43 82.8144 118.644 82.8287C119.459 82.8144 120.274 82.9856 121.018 83.2994C121.775 83.5989 122.462 84.0554 122.976 84.6545Z" fill="#1B1B2F"/>
<path d="M132.17 92.7637C132.413 93.648 132.599 94.5324 132.771 95.431C132.942 96.3154 133.085 97.214 133.214 98.1126C133.271 98.5548 133.357 99.0397 133.3 99.5247C133.257 100.01 133.128 100.48 132.9 100.908C132.685 101.336 132.342 101.736 131.913 101.964C131.498 102.164 131.098 102.363 130.669 102.534C131.027 102.249 131.398 101.992 131.77 101.721C132.113 101.479 132.342 101.108 132.514 100.723C132.671 100.323 132.757 99.9098 132.771 99.4819C132.8 99.054 132.728 98.6404 132.657 98.1839C132.542 97.2853 132.413 96.3867 132.342 95.4881C132.242 94.5894 132.185 93.6766 132.17 92.7637Z" fill="#1B1B2F"/>
<path d="M145.024 80.0989C144.052 80.0419 143.323 79.9848 142.622 79.9563C141.936 79.9278 141.335 79.9135 140.721 79.9278C140.649 79.9278 140.563 79.9278 140.492 79.9278L140.263 79.942C140.192 79.942 140.106 79.942 140.034 79.942C139.963 79.942 139.877 79.9563 139.806 79.9563C139.648 79.9706 139.491 79.9706 139.32 79.9706C139.162 79.9848 138.991 79.9991 138.805 80.0134C138.719 80.0134 138.633 80.0134 138.533 80.0134C138.447 80.0276 138.362 80.0419 138.262 80.0419C138.076 80.0562 137.89 80.0704 137.675 80.0704C137.275 80.0989 136.86 80.1275 136.346 80.0847C136.417 79.8565 136.517 79.6425 136.632 79.4428C136.746 79.2431 136.86 79.0434 137.003 78.858C137.146 78.6868 137.304 78.5299 137.475 78.373C137.561 78.2874 137.647 78.2161 137.733 78.1448C137.818 78.0735 137.918 78.0164 138.018 77.9451C138.204 77.8167 138.419 77.7026 138.619 77.5885C138.833 77.5029 139.048 77.4173 139.277 77.346C139.391 77.3032 139.505 77.2747 139.62 77.2462L139.977 77.1891C140.22 77.1606 140.449 77.1178 140.692 77.1178C141.65 77.0893 142.608 77.3746 143.394 77.8738C143.494 77.9308 143.58 78.0164 143.68 78.0735C143.766 78.1448 143.866 78.2161 143.952 78.2874C144.123 78.4443 144.281 78.6155 144.424 78.8009C144.681 79.2003 144.924 79.614 145.024 80.0989Z" fill="#1B1B2F"/>
<path d="M122.975 80.0989C122.003 80.0419 121.274 79.9848 120.573 79.9563C119.887 79.9278 119.286 79.9135 118.672 79.9278C118.6 79.9278 118.514 79.9278 118.443 79.9278L118.214 79.942C118.143 79.942 118.057 79.942 117.985 79.942C117.914 79.942 117.828 79.9563 117.757 79.9563C117.599 79.9706 117.442 79.9706 117.27 79.9706C117.113 79.9848 116.942 79.9991 116.756 80.0134C116.67 80.0134 116.584 80.0134 116.484 80.0134C116.398 80.0276 116.313 80.0419 116.212 80.0419C116.027 80.0562 115.841 80.0704 115.626 80.0704C115.226 80.0989 114.811 80.1275 114.297 80.0847C114.368 79.8565 114.468 79.6425 114.583 79.4428C114.697 79.2431 114.811 79.0434 114.954 78.858C115.097 78.6868 115.255 78.5299 115.426 78.373C115.512 78.2874 115.598 78.2161 115.683 78.1448C115.769 78.0735 115.869 78.0164 115.969 77.9451C116.155 77.8167 116.37 77.7026 116.57 77.5885C116.784 77.5029 116.999 77.4173 117.228 77.346C117.342 77.3032 117.456 77.2747 117.571 77.2462L117.928 77.1891C118.171 77.1606 118.4 77.1178 118.643 77.1178C119.601 77.0893 120.559 77.3746 121.345 77.8738C121.445 77.9308 121.531 78.0164 121.631 78.0735C121.717 78.1448 121.817 78.2161 121.903 78.2874C122.074 78.4443 122.232 78.6155 122.375 78.8009C122.646 79.2003 122.875 79.614 122.975 80.0989Z" fill="#1B1B2F"/>
<path d="M107.748 74.9045L108.677 74.4196L107.748 80.0823L104.945 82.9208C104.945 82.9208 105.417 93.9895 105.26 93.9895C105.103 93.9895 101.371 83.4057 101.371 74.7334C101.371 74.7334 98.5829 77.2581 102.214 81.2947C102.214 81.2947 97.1389 80.553 99.5409 76.1883C100.399 74.6193 101.185 73.0074 101.786 71.3243C101.814 71.2673 101.828 71.1959 101.857 71.1389L100.513 72.9647C100.513 72.9647 99.5266 71.1389 101.614 68.0009C101.614 68.0009 97.0102 71.4527 96.953 76.3594C96.953 76.3594 95.1802 70.6397 100.813 66.6886C100.813 66.6886 100.17 63.2938 103.687 58.0733C103.687 58.0733 101.099 59.842 100.299 62.4808C100.299 62.4808 98.6401 56.1762 108.705 53.9082C108.705 53.9082 110.45 48.9302 117.098 51.3835C117.098 51.3835 114.839 43.6668 124.175 42.4972C124.175 42.4972 117.198 44.4656 118.485 50.6703C118.485 50.6703 121.473 40.4575 131.295 44.2516C131.295 44.2516 134.355 43.6668 135.928 47.1615C135.928 47.1615 141.189 49.8573 144.406 47.1615C144.406 47.1615 143.191 50.5134 139.559 48.8446C139.559 48.8446 141.69 50.2995 144.406 50.0142C147.108 49.7289 148.252 52.5674 148.252 52.5674C148.252 52.5674 154.929 51.9256 154.715 59.8848C154.715 59.8848 163.765 65.0625 161.105 72.2087C161.105 72.2087 161.477 65.9897 154.085 62.5663C154.085 62.5663 162.407 71.4955 158.689 75.903C158.689 75.903 159.447 73.093 156.473 70.1832L154.786 75.6035C154.786 75.6035 157.76 80.1964 156.302 82.1648C156.302 82.1648 155.715 77.5719 154.557 75.9601C154.557 75.9601 155.358 85.4312 151.283 90.609L151.483 83.2631L148.924 79.2978L148.266 71.2102C148.266 71.2102 142.547 67.5729 142.748 67.5729C142.948 67.5729 144.392 67.0309 144.392 67.0309C144.392 67.0309 141.761 61.8532 134.269 64.4064L134.469 63.5363L131.581 64.82L132.168 63.0656L129.737 64.82L127.306 64.007L127.835 64.9484L123.031 63.6647L123.618 64.4064C123.618 64.4064 114.682 64.8058 108.891 70.8679L110.407 70.3972L107.748 74.9045Z" fill="#1B1B2F"/>
<path d="M116.898 48.5582C116.869 49.2571 116.969 49.9275 117.112 50.5979C117.169 50.9402 117.284 51.254 117.369 51.5821C117.47 51.9102 117.598 52.224 117.698 52.552C118.199 53.8215 118.871 55.0197 119.643 56.1323C120.386 57.2734 121.287 58.3146 122.188 59.3559L123.617 60.8536C124.118 61.3243 124.618 61.8093 125.104 62.3085C124.532 61.9091 123.989 61.4812 123.432 61.0675C122.903 60.6111 122.388 60.1547 121.873 59.6697C121.63 59.4129 121.387 59.1705 121.144 58.9137C120.901 58.657 120.658 58.4145 120.443 58.1292L119.786 57.3162C119.557 57.0451 119.385 56.7456 119.171 56.4603C118.385 55.305 117.713 54.0498 117.284 52.709C117.184 52.3666 117.084 52.0386 117.012 51.6962C116.955 51.3539 116.869 51.0116 116.84 50.655C116.769 49.956 116.74 49.2428 116.898 48.5582Z" fill="#1F4068"/>
<path d="M121.519 47.7313C121.304 48.3019 121.19 48.8867 121.118 49.4715C121.033 50.0563 121.033 50.6554 121.061 51.2402C121.118 52.4099 121.361 53.5795 121.719 54.6921C121.819 54.9773 121.89 55.2484 122.005 55.5336L122.348 56.3467C122.405 56.4893 122.448 56.6177 122.52 56.7603L122.72 57.1597C122.848 57.4307 122.977 57.6875 123.106 57.9585L123.978 59.5132C124.307 60.0125 124.621 60.526 124.936 61.0394C124.535 60.5973 124.149 60.1266 123.749 59.6559C123.406 59.1566 123.049 58.6717 122.72 58.1582C122.105 57.1169 121.533 56.0186 121.19 54.849C120.832 53.6793 120.604 52.4526 120.632 51.226C120.661 50.6126 120.718 49.9993 120.861 49.4002C121.004 48.8296 121.204 48.2448 121.519 47.7313Z" fill="#1F4068"/>
<path d="M131.568 61.678C132.212 60.8935 132.812 60.0804 133.384 59.2531C133.942 58.4258 134.442 57.5557 134.885 56.6714L135.2 56.001C135.3 55.7728 135.371 55.5445 135.472 55.3163C135.514 55.2022 135.572 55.0881 135.615 54.974L135.729 54.6174L135.843 54.2608C135.886 54.1467 135.929 54.0183 135.943 53.9042C136.201 52.9485 136.301 51.9501 136.329 50.9373C136.515 51.9358 136.544 52.9771 136.358 54.0041C136.172 55.0168 135.843 56.0152 135.4 56.9424C134.943 57.8695 134.385 58.7396 133.742 59.5384C133.098 60.3087 132.383 61.0504 131.568 61.678Z" fill="#1F4068"/>
<path d="M129.105 61.4738C128.891 60.9746 128.762 60.4611 128.662 59.9333C128.576 59.4056 128.519 58.8778 128.519 58.3358C128.519 57.7938 128.576 57.266 128.676 56.7382C128.776 56.2105 128.948 55.697 129.191 55.212C129.177 55.754 129.134 56.2675 129.12 56.781C129.105 57.2945 129.091 57.808 129.091 58.3358L129.105 59.8905C129.12 60.4183 129.12 60.9461 129.105 61.4738Z" fill="#1F4068"/>
<path d="M133.742 60.3968C134.7 59.2557 135.787 58.243 136.916 57.2873C138.06 56.3316 139.275 55.4616 140.562 54.7056C141.849 53.9639 143.221 53.3077 144.665 52.9083C146.109 52.4947 147.654 52.3378 149.112 52.6088C147.625 52.566 146.181 52.837 144.794 53.322C144.108 53.5645 143.422 53.8355 142.778 54.1635C142.12 54.4774 141.477 54.8197 140.848 55.1905C139.576 55.918 138.375 56.7596 137.188 57.6297C136.015 58.4997 134.857 59.4269 133.742 60.3968Z" fill="#1F4068"/>
<path d="M141.389 58.2017C142.561 57.6026 143.877 57.3316 145.192 57.2317C146.507 57.1319 147.837 57.2317 149.138 57.4742C150.439 57.731 151.712 58.1304 152.898 58.7009C154.085 59.2715 155.2 59.9989 156.144 60.9118C155.057 60.1843 153.913 59.5853 152.712 59.1003C151.526 58.6296 150.282 58.2587 149.024 58.0305C147.766 57.788 146.479 57.6739 145.192 57.6739C143.934 57.6739 142.647 57.8166 141.389 58.2017Z" fill="#1F4068"/>
<path d="M158.118 72.4944C157.589 71.7955 157.032 71.1251 156.445 70.4975C155.859 69.8698 155.259 69.2565 154.601 68.686C153.958 68.1154 153.286 67.5734 152.585 67.0741C151.885 66.5606 151.141 66.1185 150.412 65.6335C151.255 65.9045 152.07 66.2468 152.828 66.7033C153.214 66.9172 153.572 67.174 153.943 67.4307C154.129 67.5591 154.286 67.7018 154.472 67.8444C154.644 67.987 154.815 68.1154 154.987 68.2723C155.645 68.8571 156.26 69.5133 156.789 70.2264C157.318 70.9111 157.789 71.6671 158.118 72.4944Z" fill="#1F4068"/>
<path d="M105.574 54.8915C106.204 54.4636 106.933 54.1641 107.676 53.9644C107.862 53.9216 108.048 53.8645 108.234 53.8217L108.806 53.7219C109.192 53.6791 109.578 53.6363 109.964 53.6363C110.164 53.6363 110.35 53.6363 110.55 53.6506C110.75 53.6648 110.936 53.6791 111.136 53.6934C111.522 53.7647 111.908 53.8075 112.266 53.9359C113.009 54.1213 113.724 54.4636 114.353 54.8773C113.61 54.6776 112.895 54.4636 112.166 54.3638C111.436 54.2354 110.707 54.1783 109.964 54.1926C109.235 54.1926 108.491 54.2497 107.762 54.378C107.033 54.5064 106.304 54.6633 105.574 54.8915Z" fill="#1F4068"/>
<path d="M122.659 63.2317C121.544 62.704 120.4 62.2475 119.256 61.8481C118.684 61.6484 118.098 61.463 117.512 61.3204C116.926 61.1635 116.34 61.0351 115.739 60.9638C115.139 60.8782 114.538 60.8354 113.952 60.8497C113.352 60.8497 112.765 60.9495 112.193 61.1064C111.622 61.2776 111.078 61.5058 110.578 61.8481C110.077 62.1905 109.649 62.6041 109.234 63.0748C109.534 62.5328 109.934 62.0478 110.406 61.6199C110.892 61.2063 111.464 60.8925 112.065 60.6785C113.28 60.2363 114.581 60.2363 115.825 60.3932C117.069 60.5787 118.284 60.9353 119.428 61.4202C120.557 61.9337 121.658 62.5185 122.659 63.2317Z" fill="#1F4068"/>
<path d="M123.547 64.4332C122.546 64.3334 121.56 64.2764 120.559 64.2621C119.558 64.2336 118.572 64.2478 117.585 64.2906C116.599 64.3477 115.612 64.419 114.626 64.5616C113.639 64.69 112.667 64.8612 111.709 65.1036C110.751 65.3319 109.807 65.6172 108.892 65.9737C107.977 66.3303 107.091 66.7583 106.233 67.2575C105.389 67.7567 104.589 68.3415 103.845 68.9977C103.102 69.6538 102.458 70.4098 101.829 71.1943C102.344 70.3385 102.959 69.5397 103.645 68.8122C104.36 68.099 105.132 67.4572 105.99 66.9009C106.848 66.3589 107.748 65.9024 108.678 65.503C109.621 65.1322 110.579 64.8326 111.566 64.5759C113.539 64.1052 115.555 63.8912 117.556 63.877C119.587 63.8342 121.588 64.0053 123.547 64.4332Z" fill="#1F4068"/>
<path d="M99.0105 68.2616C99.4251 67.6768 99.9541 67.1775 100.526 66.7354C101.098 66.2932 101.727 65.9223 102.385 65.6228C102.714 65.4659 103.057 65.3518 103.4 65.2377C103.757 65.1521 104.1 65.0237 104.458 64.9809C105.173 64.8383 105.902 64.824 106.617 64.8953C105.916 65.0522 105.23 65.1806 104.558 65.4088C103.886 65.6085 103.243 65.851 102.613 66.1363C101.984 66.4073 101.37 66.7354 100.769 67.092C100.169 67.4628 99.5824 67.8479 99.0105 68.2616Z" fill="#1F4068"/>
<path d="M146.807 70.345C147.508 70.6018 148.166 70.9298 148.809 71.2722C149.452 71.6288 150.067 72.0139 150.682 72.4275C151.282 72.8412 151.883 73.2834 152.441 73.7541C153.012 74.2248 153.541 74.724 154.042 75.266C153.398 74.9094 152.784 74.51 152.183 74.1107C151.568 73.7113 150.968 73.3119 150.367 72.8982C149.767 72.4846 149.166 72.0852 148.58 71.6573C147.98 71.2294 147.394 70.8015 146.807 70.345Z" fill="#1F4068"/>
<path d="M100.672 75.7744C100.758 75.2752 101.03 74.8187 101.316 74.4051C101.616 73.9914 101.973 73.6348 102.359 73.3068C102.745 72.9787 103.16 72.7077 103.603 72.4509C103.818 72.3225 104.046 72.2227 104.275 72.1229C104.504 72.0373 104.747 71.9374 104.99 71.8661C104.804 72.0373 104.618 72.1942 104.418 72.3511C104.232 72.508 104.032 72.6649 103.846 72.8075C103.474 73.1213 103.088 73.4066 102.731 73.7204C102.359 74.0342 102.002 74.348 101.659 74.6761C101.301 75.0327 100.972 75.375 100.672 75.7744Z" fill="#1F4068"/>
<path d="M103.6 80.8519C103.901 80.1957 104.258 79.5681 104.63 78.9405C105.001 78.3129 105.388 77.7138 105.788 77.1147C106.202 76.5157 106.617 75.9309 107.046 75.3603C107.489 74.7897 107.932 74.2192 108.433 73.6914C108.118 74.3618 107.775 74.9894 107.403 75.6028C107.032 76.2304 106.646 76.8295 106.245 77.4285C105.831 78.0276 105.43 78.6124 104.987 79.183C104.558 79.7535 104.101 80.3098 103.6 80.8519Z" fill="#1F4068"/>
<path d="M129.109 112.308C131.438 112.308 133.327 110.845 133.327 109.041C133.327 107.237 131.438 105.775 129.109 105.775C126.779 105.775 124.891 107.237 124.891 109.041C124.891 110.845 126.779 112.308 129.109 112.308Z" fill="#FA996E"/>
<path d="M132.439 111.048C132.111 111.533 131.624 111.904 131.081 112.161C130.538 112.417 129.952 112.56 129.351 112.574C128.751 112.603 128.15 112.517 127.593 112.303C127.035 112.104 126.506 111.776 126.134 111.333C126.663 111.59 127.178 111.761 127.721 111.875C128.25 111.989 128.794 112.018 129.337 112.004C130.409 111.975 131.467 111.676 132.439 111.048Z" fill="#E3405A"/>
<path d="M80.0375 201.405C79.6515 200.378 79.337 199.322 79.1225 198.238C79.0653 197.967 79.0081 197.696 78.9795 197.425C78.9366 197.154 78.908 196.869 78.8651 196.612C78.8223 196.355 78.7508 196.084 78.665 195.842C78.6221 195.713 78.5649 195.599 78.522 195.471L78.3504 195.086C77.9215 194.073 77.5498 193.032 77.2495 191.976C76.9636 190.921 76.7634 189.823 76.792 188.71C76.8349 189.252 76.9207 189.794 77.0351 190.322C77.1495 190.85 77.2924 191.377 77.464 191.905C77.7928 192.946 78.1789 193.973 78.6078 194.972L78.7651 195.343C78.8223 195.471 78.8794 195.599 78.9223 195.742C79.0081 196.013 79.0796 196.284 79.1225 196.555C79.1511 196.698 79.1654 196.84 79.1797 196.969C79.194 197.097 79.2083 197.24 79.2226 197.368C79.2655 197.639 79.2941 197.91 79.337 198.181C79.4227 198.723 79.5371 199.251 79.6515 199.793C79.7659 200.349 79.8946 200.877 80.0375 201.405Z" fill="#FA996E"/>
<g opacity="0.4">
<path d="M189.717 162.139C189.559 162.296 179.523 172.223 178.936 201.678H174.662C175.005 190.41 172.36 174.662 172.36 174.662C172.36 174.662 173.16 176.688 173.689 177.729C178.207 186.658 177.035 178.514 176.649 176.702C173.975 164.121 174.104 154.322 174.104 154.322C175.848 162.31 180.338 164.592 180.338 164.592C172.145 152.924 177.635 140.814 177.95 140.144C177.735 140.657 174.776 148.075 177.678 156.69C179.966 163.48 183.712 163.323 183.712 163.323C182.997 162.124 182.668 161.14 182.668 161.14C186.357 163.023 189.631 162.167 189.717 162.139Z" fill="#A65B3C"/>
</g>
<g opacity="0.4">
<path d="M123.163 161.152C123.163 161.152 127.824 157.714 138.09 157.957L138.347 154.491L139.448 154.334V151.01C139.448 151.01 144.652 151.367 149.785 156.616L151.486 154.006C151.486 154.006 147.54 150.839 139.448 150.097V154.334C139.448 154.334 130.069 154.847 123.163 161.152Z" fill="#A65B3C"/>
</g>
<g opacity="0.4">
<path d="M109.523 150.863C109.523 150.863 109.738 146.94 107.293 145.657C103.004 143.389 97.9424 145.657 97.9424 145.657C96.7843 133.233 101.245 124.318 102.346 122.335C95.0115 135.116 97.2418 146.784 97.2418 146.784C103.719 145.985 107.865 151.576 107.865 151.576C117.93 153.587 122.219 161.161 122.219 161.161C117.358 152.418 109.523 150.863 109.523 150.863Z" fill="#A65B3C"/>
</g>
<g opacity="0.4">
<path d="M102.345 122.351C102.431 122.209 102.503 122.08 102.589 121.938C102.589 121.938 102.503 122.08 102.345 122.351Z" fill="#A65B3C"/>
</g>
<g opacity="0.4">
<path d="M122.218 162.282C122.218 162.282 122.905 171.011 121.732 182.722L122.218 162.282Z" fill="#A65B3C"/>
</g>
<g opacity="0.4">
<path d="M171.613 157.374C171.613 157.374 170.555 145.934 179.119 135.807C179.119 135.793 169.226 140.157 171.613 157.374Z" fill="#A65B3C"/>
</g>
<g opacity="0.4">
<path d="M127.779 201.679C127.779 201.679 147.423 181.795 155.029 154.965C155.029 154.965 146.222 183.578 122.131 201.679H127.779Z" fill="#A65B3C"/>
</g>
<g opacity="0.4">
<path d="M145.611 201.686C145.611 201.686 150.987 190.018 155.033 173.515C155.033 173.515 148.384 191.387 140.435 201.686H145.611Z" fill="#A65B3C"/>
</g>
<g opacity="0.4">
<path d="M87.634 182.719L93.0099 201.69H88.8636C89.4498 192.932 87.634 182.719 87.634 182.719Z" fill="#A65B3C"/>
</g>
<g opacity="0.4">
<path d="M158.317 137.566C158.317 137.566 159.403 124.144 169.683 121.833C169.683 121.833 158.76 119.936 158.317 137.566Z" fill="#A65B3C"/>
</g>
<g opacity="0.4">
<path d="M55.7644 174.014C55.7644 174.014 57.5945 183.157 68.5606 183.328C68.5606 183.314 61.8122 183.884 55.7644 174.014Z" fill="#A65B3C"/>
</g>
<g opacity="0.4">
<path d="M65.2996 177.961C65.2996 177.961 71.5046 184.993 74.3784 193.68C74.3784 193.68 69.0026 183.053 65.2996 177.961Z" fill="#A65B3C"/>
</g>
<g opacity="0.4">
<path d="M60.4796 166.791C60.4796 166.791 60.1794 171.526 64.7117 177.417C64.7117 177.417 59.2501 173.509 60.4796 166.791Z" fill="#A65B3C"/>
</g>
<path d="M127.776 201.679C128.563 200.866 129.32 200.01 130.078 199.168C130.836 198.313 131.551 197.443 132.28 196.572C132.637 196.13 132.995 195.702 133.352 195.246C133.71 194.804 134.053 194.362 134.41 193.905C135.111 193.006 135.797 192.108 136.469 191.195C137.155 190.282 137.827 189.369 138.471 188.442C138.8 187.986 139.128 187.515 139.443 187.044C139.772 186.574 140.086 186.103 140.387 185.632C141.645 183.735 142.817 181.795 143.932 179.812C146.177 175.861 148.193 171.796 150.052 167.645C151.882 163.495 153.54 159.273 155.013 154.965L155.041 154.979C153.74 159.33 152.153 163.609 150.323 167.774C149.394 169.856 148.422 171.91 147.378 173.922C146.863 174.934 146.306 175.933 145.777 176.931C145.219 177.915 144.662 178.914 144.075 179.884C143.504 180.868 142.889 181.824 142.303 182.808C141.702 183.764 141.087 184.733 140.472 185.689L140.015 186.402L139.543 187.116C139.229 187.586 138.928 188.071 138.599 188.542C137.97 189.483 137.313 190.425 136.655 191.338C136.312 191.794 135.983 192.265 135.64 192.707C135.297 193.163 134.954 193.62 134.596 194.062C134.239 194.504 133.896 194.961 133.524 195.389C133.166 195.831 132.795 196.273 132.437 196.701C130.965 198.427 129.435 200.138 127.791 201.693L127.776 201.679Z" fill="#A65B3C"/>
<path d="M145.607 201.684C146.093 200.543 146.551 199.388 146.994 198.232C147.452 197.077 147.895 195.922 148.309 194.752C149.167 192.427 149.996 190.088 150.769 187.734C151.555 185.381 152.298 183.027 152.999 180.645C153.714 178.277 154.371 175.881 155.029 173.499C154.886 174.098 154.758 174.711 154.615 175.31C154.472 175.91 154.329 176.523 154.171 177.122C153.857 178.32 153.557 179.518 153.213 180.716C153.042 181.316 152.885 181.915 152.699 182.499L152.155 184.282C151.984 184.881 151.784 185.466 151.598 186.051C151.412 186.636 151.226 187.235 151.026 187.82L150.425 189.574L149.811 191.329C149.61 191.914 149.382 192.498 149.167 193.083C149.053 193.368 148.953 193.668 148.838 193.953L148.495 194.823C148.267 195.408 148.038 195.979 147.809 196.549C147.58 197.12 147.337 197.69 147.108 198.275C146.637 199.431 146.15 200.572 145.607 201.684Z" fill="#A65B3C"/>
<path d="M93.0099 201.676C92.438 200.135 91.909 198.581 91.4085 197.011C90.9081 195.442 90.4363 193.873 89.9788 192.29C89.5213 190.707 89.1067 189.124 88.7063 187.526C88.306 185.929 87.9486 184.331 87.634 182.719C87.8628 183.504 88.0487 184.302 88.2774 185.101L88.9208 187.483C89.364 189.067 89.7929 190.65 90.2505 192.233C90.6937 193.816 91.1655 195.385 91.623 196.969L93.0099 201.676Z" fill="#A65B3C"/>
<path d="M180.323 164.605C178.979 162.922 177.978 160.996 177.206 158.985C176.434 156.974 175.948 154.849 175.748 152.709C175.69 152.167 175.676 151.639 175.647 151.097C175.647 150.826 175.647 150.555 175.647 150.284C175.647 150.156 175.647 150.013 175.647 149.885L175.662 149.485C175.705 148.416 175.819 147.332 176.019 146.276C176.119 145.748 176.219 145.221 176.362 144.693C176.434 144.436 176.491 144.165 176.562 143.908L176.791 143.138L176.906 142.753L177.049 142.368L177.32 141.612C177.506 141.113 177.735 140.613 177.935 140.128L177.663 140.884L177.52 141.255C177.478 141.384 177.42 141.512 177.392 141.64L177.149 142.411L177.034 142.796L176.934 143.181L176.72 143.951C176.648 144.208 176.605 144.479 176.534 144.736C176.405 145.249 176.334 145.777 176.234 146.305C176.205 146.433 176.191 146.561 176.176 146.704L176.134 147.103C176.105 147.374 176.062 147.631 176.034 147.902L175.962 148.701C175.933 148.972 175.933 149.229 175.919 149.5L175.905 149.899C175.905 150.027 175.905 150.17 175.905 150.298C175.905 150.569 175.905 150.826 175.919 151.097C175.948 151.625 175.962 152.167 176.019 152.695C176.119 153.75 176.277 154.806 176.505 155.847C176.734 156.888 177.049 157.915 177.392 158.914C177.749 159.912 178.164 160.911 178.65 161.852C179.15 162.808 179.694 163.735 180.323 164.605Z" fill="#A65B3C"/>
<path d="M176.578 176.206C176.363 175.307 176.163 174.409 175.963 173.51C175.777 172.611 175.605 171.713 175.434 170.8C175.105 168.988 174.833 167.163 174.605 165.351C174.39 163.525 174.219 161.685 174.118 159.86C174.104 159.403 174.076 158.947 174.061 158.476C174.047 158.02 174.033 157.563 174.033 157.092L174.047 155.709C174.061 155.252 174.076 154.796 174.09 154.325C174.104 154.782 174.118 155.238 174.118 155.709L174.176 157.078L174.247 158.448C174.276 158.904 174.304 159.36 174.347 159.817C174.49 161.643 174.662 163.468 174.891 165.294C175.105 167.12 175.377 168.931 175.648 170.743C175.791 171.656 175.934 172.554 176.092 173.467C176.263 174.409 176.42 175.307 176.578 176.206Z" fill="#A65B3C"/>
<path d="M171.614 157.372C171.471 155.433 171.614 153.464 171.886 151.539C172.015 150.569 172.215 149.613 172.429 148.657C172.658 147.702 172.916 146.76 173.23 145.833C173.545 144.906 173.902 143.993 174.302 143.109L174.617 142.438C174.717 142.21 174.831 141.996 174.946 141.782C175.06 141.568 175.16 141.34 175.289 141.126L175.646 140.484C175.761 140.27 175.904 140.07 176.032 139.856C176.161 139.657 176.29 139.443 176.418 139.243C176.69 138.844 176.962 138.43 177.262 138.045C177.834 137.26 178.477 136.519 179.135 135.791C178.52 136.547 177.92 137.303 177.376 138.116C177.09 138.516 176.833 138.929 176.576 139.329C176.447 139.528 176.333 139.742 176.204 139.956C176.09 140.17 175.961 140.37 175.846 140.584C175.375 141.44 174.946 142.31 174.56 143.194C174.174 144.079 173.831 144.991 173.516 145.904C172.901 147.744 172.429 149.627 172.115 151.539C171.958 152.494 171.829 153.464 171.757 154.434C171.643 155.418 171.6 156.388 171.614 157.372Z" fill="#A65B3C"/>
<path d="M158.317 137.561C158.374 136.691 158.517 135.835 158.674 134.994C158.846 134.138 159.06 133.296 159.318 132.469C159.832 130.815 160.519 129.203 161.434 127.719C161.891 126.978 162.406 126.279 162.992 125.608C163.578 124.952 164.222 124.367 164.922 123.84C165.623 123.312 166.395 122.898 167.196 122.542L167.81 122.299C168.011 122.228 168.225 122.171 168.439 122.114L168.754 122.028C168.854 122 168.968 121.985 169.069 121.957L169.712 121.828C168.868 122.042 168.039 122.299 167.267 122.67L167.124 122.741L166.981 122.813L166.695 122.969L166.409 123.126C166.309 123.169 166.223 123.241 166.138 123.298C165.952 123.412 165.78 123.526 165.594 123.64L165.08 124.025C164.408 124.553 163.779 125.152 163.221 125.794C162.663 126.45 162.163 127.135 161.705 127.876C161.248 128.604 160.862 129.374 160.504 130.144C160.147 130.929 159.832 131.727 159.561 132.54C159.289 133.354 159.046 134.181 158.846 135.022C158.603 135.864 158.431 136.706 158.317 137.561Z" fill="#A65B3C"/>
<path d="M168.341 126.964C169.127 126.123 170.071 125.452 171.071 124.882C172.072 124.325 173.159 123.883 174.26 123.569C175.375 123.256 176.519 123.056 177.662 122.985C178.806 122.913 179.964 122.956 181.094 123.127C179.95 123.07 178.806 123.099 177.677 123.213C177.534 123.227 177.391 123.241 177.248 123.256L176.819 123.313C176.533 123.356 176.261 123.398 175.975 123.455C175.418 123.555 174.86 123.698 174.317 123.84C173.774 123.983 173.23 124.183 172.701 124.383C172.172 124.582 171.658 124.825 171.143 125.081C170.642 125.338 170.142 125.623 169.67 125.937C169.227 126.251 168.755 126.593 168.341 126.964Z" fill="#A65B3C"/>
<path d="M182.954 130.876C183.74 129.777 184.741 128.85 185.828 128.066C186.929 127.281 188.13 126.625 189.388 126.154C190.017 125.912 190.675 125.712 191.332 125.569C191.661 125.484 191.99 125.427 192.333 125.37C192.662 125.313 193.005 125.27 193.334 125.227C194.678 125.084 196.036 125.113 197.366 125.284C196.022 125.213 194.678 125.27 193.363 125.441C193.191 125.455 193.034 125.484 192.862 125.512C192.705 125.541 192.533 125.569 192.376 125.598C192.047 125.669 191.718 125.726 191.404 125.812C191.075 125.883 190.76 125.983 190.446 126.083C190.131 126.183 189.817 126.283 189.502 126.411C188.873 126.639 188.273 126.91 187.672 127.224C187.086 127.524 186.514 127.866 185.957 128.251C185.399 128.622 184.87 129.036 184.37 129.463C183.869 129.891 183.383 130.362 182.954 130.876Z" fill="#A65B3C"/>
<path d="M152.656 154.963C152.999 153.522 153.3 152.081 153.557 150.627C153.829 149.172 154.043 147.717 154.229 146.248C154.601 143.323 154.858 140.371 154.872 137.418C154.887 137.047 154.872 136.677 154.872 136.306C154.872 135.935 154.872 135.564 154.858 135.193L154.829 134.081L154.772 132.982C154.672 131.513 154.515 130.044 154.286 128.589L154.243 128.318L154.186 128.047L154.086 127.505L153.986 126.963C153.943 126.777 153.9 126.606 153.857 126.421C153.771 126.064 153.7 125.708 153.6 125.351L153.3 124.281C152.871 122.869 152.342 121.486 151.698 120.159C152.399 121.471 152.956 122.841 153.428 124.253L153.757 125.323C153.857 125.679 153.943 126.036 154.029 126.392C154.072 126.578 154.129 126.749 154.157 126.934L154.272 127.476L154.386 128.018L154.443 128.289L154.486 128.56C155.001 131.485 155.173 134.451 155.144 137.418C155.13 138.902 155.044 140.385 154.929 141.854C154.801 143.323 154.658 144.807 154.429 146.262C154.029 149.2 153.457 152.11 152.656 154.963Z" fill="#A65B3C"/>
<path d="M139.448 154.339C139.42 153.626 139.405 152.927 139.391 152.213L139.362 151.158L139.348 150.102V149.988H139.463C140.063 150.031 140.663 150.088 141.25 150.174C141.836 150.259 142.436 150.359 143.023 150.473C144.195 150.701 145.353 151.015 146.497 151.386C147.069 151.586 147.626 151.8 148.17 152.028C148.713 152.27 149.256 152.527 149.785 152.827C150.3 153.126 150.815 153.44 151.301 153.797C151.787 154.153 152.244 154.538 152.659 154.966C152.202 154.581 151.73 154.225 151.229 153.897C150.729 153.583 150.214 153.283 149.685 153.012C148.627 152.47 147.526 152.028 146.397 151.671C145.267 151.3 144.123 151.001 142.951 150.758C141.793 150.516 140.606 150.331 139.434 150.216L139.548 150.117L139.534 151.172L139.505 152.228C139.491 152.927 139.477 153.64 139.448 154.339Z" fill="#A65B3C"/>
<path d="M123.163 161.159C124.235 160.103 125.422 159.176 126.695 158.378C127.967 157.579 129.311 156.894 130.712 156.338C132.113 155.782 133.557 155.354 135.016 155.026C136.474 154.698 137.961 154.469 139.462 154.341C137.989 154.583 136.517 154.883 135.073 155.24C133.629 155.61 132.199 156.053 130.826 156.609C129.44 157.151 128.096 157.807 126.823 158.563C125.522 159.333 124.307 160.189 123.163 161.159Z" fill="#A65B3C"/>
<path d="M107.291 145.651C107.748 145.851 108.106 146.222 108.42 146.607C108.721 147.006 108.949 147.448 109.135 147.919C109.307 148.39 109.435 148.875 109.507 149.36C109.593 149.845 109.636 150.344 109.65 150.843L109.55 150.729C110.25 150.886 110.908 151.114 111.58 151.371C112.238 151.628 112.881 151.927 113.51 152.255C114.754 152.911 115.941 153.696 117.027 154.595C118.128 155.479 119.1 156.506 119.987 157.604C120.416 158.161 120.845 158.717 121.202 159.316C121.402 159.601 121.56 159.915 121.745 160.214C121.917 160.514 122.074 160.828 122.246 161.142C122.06 160.842 121.888 160.543 121.703 160.243C121.517 159.958 121.331 159.658 121.116 159.373L120.816 158.945L120.502 158.531C120.301 158.246 120.073 157.989 119.844 157.718C119.386 157.191 118.929 156.663 118.414 156.192C118.285 156.064 118.171 155.95 118.042 155.836L117.656 155.479C117.399 155.251 117.127 155.022 116.856 154.809C115.783 153.924 114.597 153.168 113.367 152.512C112.752 152.184 112.123 151.884 111.48 151.628C110.837 151.371 110.165 151.143 109.507 150.986L109.407 150.957V150.857C109.392 150.372 109.378 149.888 109.307 149.403C109.235 148.918 109.135 148.447 108.978 147.976C108.821 147.52 108.62 147.063 108.349 146.664C108.206 146.464 108.063 146.279 107.877 146.093C107.705 145.936 107.52 145.765 107.291 145.651Z" fill="#A65B3C"/>
<path d="M97.9707 145.652C98.3138 145.453 98.6999 145.31 99.0716 145.153C99.4576 145.025 99.8437 144.911 100.23 144.825C101.016 144.654 101.831 144.554 102.632 144.568C103.432 144.582 104.247 144.654 105.034 144.854C105.434 144.925 105.806 145.067 106.192 145.182C106.378 145.239 106.563 145.324 106.749 145.41C106.935 145.481 107.121 145.567 107.293 145.652C107.092 145.595 106.907 145.538 106.721 145.481C106.535 145.424 106.349 145.353 106.149 145.324C105.763 145.239 105.377 145.125 104.991 145.067L104.705 145.01C104.605 144.996 104.505 144.968 104.419 144.968L103.833 144.911C103.632 144.882 103.432 144.882 103.246 144.868C103.046 144.853 102.846 144.839 102.66 144.854C102.46 144.854 102.26 144.854 102.074 144.854L101.488 144.896C101.088 144.925 100.702 144.982 100.315 145.039C99.4862 145.182 98.7142 145.367 97.9707 145.652Z" fill="#A65B3C"/>
<path d="M121.732 182.723C121.804 181.867 121.861 181.026 121.918 180.17C121.975 179.314 122.032 178.473 122.09 177.617C122.19 175.919 122.275 174.208 122.333 172.51C122.361 171.655 122.39 170.813 122.39 169.957C122.418 169.101 122.404 168.26 122.404 167.404C122.39 165.706 122.333 163.995 122.218 162.297C122.447 163.995 122.576 165.692 122.633 167.404C122.69 169.116 122.662 170.827 122.619 172.525C122.561 174.236 122.461 175.934 122.304 177.645C122.161 179.328 121.975 181.026 121.732 182.723Z" fill="#A65B3C"/>
<path d="M74.3794 193.68C74.1221 192.966 73.8361 192.253 73.5359 191.554L73.0783 190.513L72.6065 189.472C71.9632 188.088 71.2626 186.747 70.5048 185.421C70.1331 184.75 69.7328 184.109 69.3324 183.467C69.1323 183.139 68.9178 182.825 68.7176 182.511L68.4031 182.04L68.0743 181.57L67.4166 180.642L66.716 179.744C66.6016 179.587 66.4873 179.444 66.3729 179.287L66.0011 178.845C65.7581 178.56 65.515 178.26 65.272 177.961C65.5293 178.232 65.801 178.517 66.0583 178.788L66.4444 179.202C66.573 179.344 66.6874 179.487 66.8161 179.644L67.5453 180.528C67.774 180.828 68.0028 181.142 68.2315 181.441L68.5747 181.898L68.9035 182.368C69.118 182.682 69.3324 182.996 69.5469 183.324C69.9472 183.98 70.3618 184.622 70.7336 185.292C71.4913 186.619 72.1776 187.988 72.7781 189.386C73.4215 190.784 73.9648 192.225 74.3794 193.68Z" fill="#A65B3C"/>
<path d="M64.714 177.417C64.0563 176.69 63.4844 175.905 62.9697 175.078C62.455 174.251 61.9975 173.38 61.6114 172.482C61.2254 171.583 60.9395 170.642 60.725 169.7C60.5105 168.745 60.4534 167.76 60.4819 166.791C60.5105 167.033 60.5391 167.276 60.5534 167.518C60.5677 167.632 60.5677 167.76 60.5963 167.875L60.6535 168.231C60.6964 168.474 60.725 168.702 60.7822 168.944L60.9538 169.643L60.9966 169.814L61.0538 169.986L61.1539 170.328C61.2254 170.556 61.2826 170.784 61.3684 171.013L61.6114 171.697L61.8831 172.368C62.2548 173.252 62.698 174.122 63.1699 174.964C63.4129 175.377 63.656 175.805 63.9133 176.205C64.1564 176.618 64.428 177.018 64.714 177.417Z" fill="#A65B3C"/>
<path d="M68.5619 183.312C67.1322 183.412 65.6738 183.241 64.2727 182.885C62.8715 182.528 61.5276 181.943 60.3266 181.116C59.7261 180.702 59.1685 180.232 58.6681 179.718C58.1677 179.19 57.7245 178.62 57.3384 178.006C56.5807 176.78 56.066 175.41 55.78 173.998C56.1804 175.368 56.7523 176.694 57.5243 177.878C57.9246 178.463 58.3679 179.019 58.8683 179.518C59.3687 180.018 59.912 180.474 60.4982 180.873C61.0844 181.287 61.6992 181.615 62.3425 181.915C62.9859 182.214 63.6579 182.457 64.3442 182.656C65.0304 182.856 65.731 183.013 66.4316 183.113C67.1322 183.241 67.847 183.312 68.5619 183.312Z" fill="#A65B3C"/>
<path d="M65.0544 176.054C64.3538 172.645 63.9821 169.165 63.7962 165.684C63.6246 162.204 63.6818 158.709 63.9821 155.229C64.025 154.801 64.0536 154.359 64.1107 153.931L64.268 152.633C64.3252 152.205 64.3967 151.763 64.4539 151.335C64.4825 151.121 64.5111 150.907 64.554 150.693L64.6683 150.051L64.7827 149.409C64.8256 149.195 64.8542 148.981 64.9114 148.767L65.1688 147.484C65.2545 147.056 65.3689 146.628 65.469 146.214L65.6263 145.572L65.7978 144.945C66.2411 143.262 66.813 141.607 67.442 139.981L67.9425 138.768C68.114 138.369 68.2999 137.97 68.4858 137.585L68.7574 136.985C68.8575 136.786 68.9576 136.6 69.0576 136.401L69.6581 135.245C68.0997 138.355 66.8701 141.635 66.0123 145.002L65.8407 145.629L65.6978 146.271C65.5977 146.699 65.4976 147.113 65.4118 147.541L65.1545 148.824C65.1116 149.038 65.0687 149.252 65.0401 149.466L64.9257 150.108L64.8113 150.75C64.7684 150.964 64.7541 151.178 64.7112 151.392C64.654 151.82 64.5826 152.248 64.5254 152.676L64.3824 153.974C64.3252 154.402 64.2966 154.844 64.2537 155.272C63.9249 158.738 63.882 162.218 63.9964 165.684C64.0536 167.424 64.1822 169.165 64.3538 170.89C64.5397 172.616 64.7541 174.342 65.0544 176.054Z" fill="#A65B3C"/>
<path d="M102.585 121.938C102.099 122.836 101.67 123.763 101.27 124.705C100.869 125.646 100.512 126.602 100.183 127.572C99.8686 128.542 99.554 129.512 99.2967 130.496C99.025 131.48 98.8106 132.479 98.6247 133.477C98.2244 135.474 97.9956 137.499 97.8669 139.539C97.824 140.552 97.7811 141.579 97.8097 142.606C97.8097 143.119 97.8383 143.633 97.8526 144.132C97.8526 144.389 97.8812 144.646 97.8955 144.902L97.9384 145.673C97.8097 144.66 97.7097 143.633 97.6525 142.62C97.5953 141.593 97.6096 140.566 97.6239 139.539C97.6954 137.485 97.9384 135.445 98.3244 133.434C98.7248 131.423 99.2538 129.44 99.9543 127.5C100.684 125.575 101.513 123.678 102.585 121.938Z" fill="#A65B3C"/>
<g opacity="0.8">
<path d="M127.28 166.573C127.95 165.905 127.95 164.821 127.28 164.153C126.61 163.484 125.523 163.484 124.853 164.153C124.183 164.821 124.183 165.905 124.853 166.573C125.523 167.242 126.61 167.242 127.28 166.573Z" fill="white"/>
</g>
<g opacity="0.8">
<path d="M127.755 175.665C127.907 174.732 127.272 173.853 126.337 173.701C125.401 173.55 124.52 174.184 124.368 175.117C124.217 176.05 124.852 176.929 125.787 177.081C126.722 177.232 127.604 176.598 127.755 175.665Z" fill="white"/>
</g>
<path d="M239.299 201.425H22.7217V201.853H239.299V201.425Z" fill="#1B1A2E"/>
<path d="M80.0378 201.409C80.0378 201.409 79.2372 198.956 79.037 196.945C78.9798 196.431 78.8512 195.918 78.651 195.433C78.0362 194.049 76.8209 191.025 76.7923 188.714C76.7637 185.648 70.3299 189.356 73.1894 196.688C73.1894 196.688 68.9859 193.835 64.8111 197.372C64.8111 197.372 62.1661 193.108 56.1898 196.317C56.1898 196.317 53.7306 192.623 49.084 195.447C49.084 195.447 41.5064 192.337 40.4626 201.395H44.2658L45.4524 202.764C45.4524 202.764 43.4651 208.527 48.1832 210.509C48.1832 210.509 47.7829 214.746 49.3127 217.185C50.3278 218.797 52.8156 218.412 53.316 216.572C53.316 216.557 53.3303 216.529 53.3303 216.514C53.3303 216.514 54.131 218.811 56.0754 218.469C57.7053 218.183 58.7347 216.044 58.7347 216.044C58.7347 216.044 62.0374 216.999 64.3822 213.105C66.7413 209.211 68.1996 207.058 68.1996 207.058L72.6175 201.395H80.0378V201.409Z" fill="#FFC89F"/>
<path d="M64.825 197.384C65.1395 198.169 65.1681 199.039 65.068 199.866C65.0537 199.966 65.0394 200.08 65.0108 200.18L64.9536 200.494C64.8964 200.693 64.8393 200.907 64.7821 201.107C64.7106 201.307 64.6391 201.506 64.5533 201.692C64.4675 201.877 64.3817 202.077 64.2817 202.262C64.1816 202.448 64.0672 202.619 63.9528 202.804L63.5954 203.318C63.3523 203.66 63.1236 203.988 62.9234 204.359C62.5231 205.087 62.2228 205.857 61.9512 206.641C61.6938 207.426 61.4508 208.225 61.222 209.023L60.55 211.42C60.3213 212.218 60.0782 213.017 59.8066 213.802C59.6779 214.201 59.5206 214.586 59.3634 214.971C59.2776 215.171 59.1918 215.357 59.0917 215.542C58.9916 215.727 58.8772 215.913 58.7486 216.07L58.72 216.055C58.9344 215.699 59.0774 215.314 59.2204 214.929C59.3634 214.543 59.4634 214.144 59.5778 213.745L60.2355 211.348C60.4642 210.55 60.693 209.751 60.9504 208.952C61.1934 208.153 61.4794 207.369 61.7939 206.599C61.9512 206.213 62.1227 205.828 62.28 205.443C62.4516 205.058 62.6375 204.687 62.8233 204.316C63.0092 203.945 63.2236 203.589 63.4524 203.232L63.767 202.705C63.867 202.519 63.9528 202.334 64.0529 202.163C64.4103 201.421 64.7106 200.651 64.8393 199.852C64.9107 199.452 64.9393 199.039 64.9536 198.625C64.9536 198.211 64.9107 197.798 64.7964 197.398L64.825 197.384Z" fill="#FA996E"/>
<path d="M56.1908 196.331C56.3481 196.488 56.4625 196.673 56.5768 196.873C56.634 196.973 56.6769 197.073 56.7198 197.173L56.8342 197.486C56.9772 197.914 57.0487 198.342 57.0915 198.799C57.1487 199.683 57.0058 200.582 56.7484 201.423C56.6769 201.637 56.6197 201.837 56.5339 202.051L56.2766 202.664C56.105 203.064 55.9192 203.463 55.7619 203.862C55.433 204.675 55.1614 205.503 54.904 206.33C54.661 207.172 54.4322 208.013 54.2178 208.855C54.0176 209.696 53.8174 210.552 53.6745 211.408C53.5172 212.264 53.3885 213.12 53.317 213.99C53.2455 214.86 53.2169 215.73 53.2884 216.6H53.2598C53.0883 215.744 53.0597 214.86 53.0883 213.975C53.1169 213.091 53.2312 212.221 53.3742 211.351C53.5172 210.481 53.7317 209.639 53.9604 208.783C54.1892 207.942 54.4608 207.1 54.7611 206.273L55.2186 205.046L55.4473 204.433L55.6761 203.82C55.8191 203.406 55.9906 203.007 56.1336 202.593L56.3481 201.98C56.4196 201.78 56.4625 201.566 56.5196 201.352C56.7341 200.51 56.8771 199.669 56.8628 198.799C56.8485 198.371 56.7913 197.943 56.6769 197.529C56.5625 197.116 56.4053 196.702 56.1479 196.36L56.1908 196.331Z" fill="#FA996E"/>
<path d="M48.1838 210.528C48.2696 210.556 48.3554 210.585 48.4412 210.599C48.527 210.628 48.6128 210.642 48.6985 210.656C48.8701 210.67 49.0274 210.613 49.1561 210.514C49.2847 210.414 49.3705 210.271 49.3991 210.114C49.4134 210.043 49.4134 209.943 49.4134 209.857L49.4277 209.586C49.4849 208.873 49.5564 208.16 49.6708 207.461C49.7994 206.762 49.9567 206.063 50.114 205.364C50.1855 205.022 50.2713 204.665 50.357 204.323C50.3999 204.152 50.4571 203.981 50.5 203.81C50.5572 203.638 50.6001 203.467 50.6573 203.296C50.7145 203.125 50.786 202.954 50.8432 202.797C50.9003 202.626 50.9432 202.469 50.9718 202.298C51.0004 202.126 51.029 201.955 51.029 201.784C51.029 201.613 51.0433 201.427 51.0433 201.256C51.0433 200.9 51.0433 200.557 51.0147 200.201C50.9861 199.844 50.9575 199.502 50.9003 199.16C50.8003 198.461 50.6287 197.79 50.3427 197.148C50.0568 196.521 49.6422 195.936 49.0846 195.494L49.0989 195.465C49.7137 195.836 50.1998 196.407 50.5429 197.049C50.886 197.69 51.0862 198.404 51.2006 199.117C51.315 199.83 51.3436 200.557 51.3007 201.271C51.3007 201.456 51.2864 201.627 51.2721 201.813C51.2578 201.998 51.2292 202.183 51.1863 202.355C51.1434 202.526 51.0862 202.711 51.0147 202.882C50.9432 203.054 50.8717 203.21 50.8003 203.367C50.5286 204.023 50.3427 204.708 50.1998 205.407C50.0568 206.106 49.9853 206.805 49.8995 207.518L49.6422 209.629L49.6136 209.9C49.5993 209.986 49.5993 210.071 49.5707 210.171C49.5278 210.371 49.3991 210.542 49.2418 210.656C49.0846 210.77 48.8701 210.813 48.6842 210.77C48.5842 210.756 48.4984 210.713 48.4269 210.685C48.3411 210.656 48.2553 210.613 48.1838 210.571V210.528Z" fill="#FA996E"/>
<path d="M72.8336 196.503C73.2911 196.66 73.7201 197.002 73.9774 197.444C74.1061 197.672 74.1919 197.915 74.2205 198.172C74.2491 198.428 74.2348 198.685 74.1919 198.942C74.1347 199.199 74.0489 199.427 73.9488 199.655C73.8344 199.883 73.7201 200.097 73.5771 200.297C73.2911 200.711 72.9623 201.067 72.5906 201.395C72.8765 200.996 73.1482 200.596 73.3769 200.183C73.6057 199.769 73.8059 199.327 73.8916 198.87C73.9774 198.414 73.9488 197.943 73.763 197.53C73.5914 197.13 73.2482 196.774 72.8336 196.503Z" fill="#FA996E"/>
<path d="M44.2688 201.415C44.1687 201.272 44.0972 201.115 44.04 200.958C43.9828 200.801 43.9542 200.63 43.9399 200.459C43.9256 200.288 43.9399 200.117 43.9685 199.945C43.9971 199.774 44.0543 199.617 44.1544 199.475C44.183 199.646 44.183 199.803 44.1973 199.96L44.2402 200.43C44.2402 200.773 44.2688 201.072 44.2688 201.415Z" fill="#FA996E"/>
<path d="M56.1771 196.342C55.7339 195.843 55.2192 195.429 54.6473 195.13C54.0754 194.83 53.4606 194.63 52.8172 194.573C52.1738 194.516 51.5304 194.588 50.9014 194.759C50.2723 194.93 49.6575 195.187 49.0713 195.472C49.6003 195.073 50.2008 194.759 50.8442 194.545C51.1587 194.431 51.5018 194.359 51.8307 194.317C52.1738 194.274 52.517 194.274 52.8458 194.288C53.5321 194.345 54.1898 194.573 54.7617 194.93C55.3478 195.287 55.834 195.772 56.1771 196.342Z" fill="#FA996E"/>
<path d="M64.8104 197.406C64.31 196.779 63.6809 196.294 62.9804 195.923C62.2798 195.566 61.522 195.352 60.75 195.31C59.9779 195.252 59.1916 195.352 58.4195 195.552C57.6617 195.737 56.904 196.023 56.1748 196.351C56.8468 195.923 57.576 195.566 58.348 195.338C58.5482 195.281 58.734 195.224 58.9342 195.181C59.1344 195.138 59.3345 195.11 59.5347 195.067C59.935 195.024 60.3496 194.996 60.75 195.024C61.1503 195.053 61.5649 195.124 61.951 195.238C62.337 195.352 62.723 195.524 63.0662 195.723C63.7953 196.137 64.3958 196.707 64.8104 197.406Z" fill="#FA996E"/>
<path d="M73.1877 196.71C72.5158 196.368 71.8152 196.111 71.086 195.954C70.3569 195.798 69.6277 195.726 68.8842 195.783C68.1551 195.84 67.4259 196.012 66.7396 196.297C66.0533 196.582 65.41 196.967 64.7952 197.395C65.3242 196.867 65.9532 196.425 66.6395 196.083C67.3258 195.755 68.0836 195.555 68.8556 195.498C69.6277 195.441 70.3997 195.527 71.1289 195.741C71.8724 195.94 72.5729 196.254 73.1877 196.71Z" fill="#FA996E"/>
<path d="M72.6148 191.526C72.5862 191.968 72.5576 192.41 72.5719 192.838C72.5862 193.28 72.6148 193.708 72.672 194.136C72.7292 194.564 72.8007 194.992 72.8865 195.42C72.9722 195.848 73.0866 196.276 73.1867 196.704C72.9722 196.319 72.8007 195.905 72.672 195.477C72.529 195.049 72.4432 194.607 72.3861 194.165C72.3289 193.723 72.3146 193.266 72.3575 192.824C72.3718 192.382 72.4575 191.94 72.6148 191.526Z" fill="#FA996E"/>
<path d="M192.062 129.99C192.062 129.99 180.109 136.137 178.679 148.689C177.249 161.242 189.731 162.154 189.731 162.154C189.731 162.154 214.394 167.76 227.376 156.021C227.376 156.021 244.176 145.965 229.993 130.774C229.993 130.774 206.359 98.8946 181.296 80.0236C181.296 80.0236 171.059 68.3415 158.191 69.7394L139.862 68.2559L137.202 69.126L128.109 68.7552C128.109 68.7552 122.476 69.3828 117.515 68.099C116.786 67.9136 116.128 68.5697 116.314 69.2972C116.4 69.6395 116.557 69.9818 116.814 70.2529C116.814 70.2529 112.668 70.4098 109.794 69.882C108.965 69.7251 108.236 70.4668 108.422 71.2798C108.479 71.5223 108.565 71.7791 108.679 72.0644L105.519 72.0216C104.561 72.0073 103.932 72.9915 104.333 73.8616C104.704 74.6746 105.505 75.4877 107.192 75.7444C107.192 75.7444 107.178 78.3119 114.312 77.399L122.204 77.7556L130.34 77.67C130.34 77.67 135.472 79.995 141.678 79.8809L150.285 83.0475C150.285 83.0475 155.003 88.3536 162.237 85.8574C162.237 85.8574 168.085 91.6485 176.692 103.901C184.87 115.626 192.062 129.99 192.062 129.99Z" fill="#FFC89F"/>
<path d="M130.308 77.6619C131.952 78.2182 133.611 78.6604 135.284 79.074C135.698 79.1739 136.127 79.2737 136.542 79.3593C136.957 79.4591 137.385 79.5305 137.814 79.6018C138.029 79.6303 138.243 79.6588 138.458 79.6874C138.672 79.7159 138.887 79.7444 139.101 79.7444C139.53 79.7872 139.959 79.8015 140.402 79.8157C141.26 79.8585 142.146 79.9156 142.99 80.1295C143.419 80.2436 143.834 80.372 144.234 80.5432C144.634 80.7001 145.035 80.857 145.449 81.0139C147.05 81.6558 148.652 82.3262 150.225 83.0393L150.21 83.0679C148.566 82.5116 146.95 81.9125 145.335 81.2992C144.934 81.1423 144.534 80.9854 144.134 80.8285C143.734 80.6573 143.333 80.5147 142.919 80.4005C142.104 80.1723 141.246 80.0725 140.388 79.9869C138.658 79.8015 136.942 79.6303 135.227 79.3165C134.369 79.1453 133.539 78.9171 132.71 78.6461C131.881 78.3751 131.066 78.0755 130.294 77.7047L130.308 77.6619Z" fill="#FA996E"/>
<path d="M107.176 75.743C107.19 75.8999 107.262 76.0568 107.348 76.1851L107.419 76.285L107.505 76.3706L107.576 76.4562C107.605 76.4847 107.634 76.5132 107.662 76.5275C107.777 76.6416 107.92 76.7129 108.048 76.7985C108.12 76.8413 108.191 76.8698 108.263 76.9126C108.334 76.9411 108.406 76.9839 108.477 77.0124C109.078 77.2549 109.721 77.3405 110.364 77.3976C110.693 77.4261 111.008 77.4404 111.337 77.4404C111.666 77.4404 111.98 77.4546 112.309 77.4261C112.638 77.4118 112.967 77.4118 113.281 77.3833L114.253 77.312H114.268C114.94 77.369 115.597 77.3976 116.269 77.4261L117.27 77.4689L118.271 77.4974C119.601 77.5117 120.945 77.5687 122.274 77.6115C123.604 77.583 124.948 77.5687 126.277 77.583C127.607 77.583 128.951 77.6115 130.281 77.6543V77.6828C128.951 77.7542 127.607 77.7969 126.277 77.8397C124.948 77.8825 123.604 77.8968 122.274 77.8968C120.945 77.8397 119.601 77.7542 118.271 77.6543L117.27 77.583L116.269 77.5259C115.597 77.4831 114.94 77.4689 114.268 77.4546H114.282C113.624 77.5402 112.981 77.64 112.323 77.6828C112.152 77.6971 111.994 77.7114 111.823 77.7114H111.322C110.994 77.7256 110.665 77.6828 110.336 77.6543C109.678 77.583 109.006 77.4689 108.406 77.1836C108.334 77.1551 108.263 77.1123 108.177 77.0695C108.105 77.0267 108.02 76.9982 107.963 76.9411L107.762 76.7985C107.691 76.7557 107.634 76.6844 107.576 76.6273C107.548 76.5988 107.519 76.5703 107.491 76.5417L107.419 76.4419L107.348 76.342L107.291 76.2279C107.205 76.0853 107.162 75.9141 107.162 75.743H107.176Z" fill="#FA996E"/>
<path d="M108.65 72.0671C107.863 72.1099 107.091 72.1385 106.305 72.1527H105.719C105.619 72.1527 105.519 72.1527 105.433 72.1527C105.347 72.1527 105.261 72.167 105.175 72.1955C104.832 72.2811 104.546 72.5378 104.418 72.8517C104.346 73.0086 104.303 73.1797 104.318 73.3509C104.318 73.522 104.375 73.6932 104.446 73.8501C104.604 74.1924 104.832 74.492 105.104 74.7487C105.662 75.2622 106.391 75.5618 107.148 75.7329C106.762 75.7044 106.376 75.6331 105.99 75.5047C105.619 75.3763 105.261 75.1909 104.947 74.9199C104.632 74.6632 104.375 74.3351 104.189 73.9785C104.089 73.7931 104.032 73.5791 104.017 73.3652C104.003 73.1512 104.046 72.9372 104.132 72.7375C104.303 72.3382 104.661 72.0386 105.09 71.9245C105.19 71.9102 105.304 71.8817 105.404 71.8817C105.519 71.8817 105.604 71.8817 105.704 71.8817L106.291 71.896C107.106 71.953 107.878 71.9958 108.65 72.0671Z" fill="#FA996E"/>
<path d="M116.784 70.2529C115.94 70.3385 115.082 70.367 114.239 70.367C113.381 70.367 112.538 70.3384 111.68 70.2671C111.251 70.2243 110.836 70.1815 110.407 70.1102C110.193 70.0817 109.993 70.0389 109.778 69.9961C109.578 69.9533 109.392 69.9533 109.206 70.0104C108.835 70.1245 108.534 70.4383 108.448 70.8377C108.406 71.0374 108.434 71.2371 108.477 71.4368C108.52 71.6365 108.591 71.8504 108.649 72.0501C108.549 71.8647 108.463 71.665 108.391 71.4653C108.32 71.2656 108.263 71.0374 108.291 70.8234C108.348 70.367 108.677 69.9676 109.12 69.8107C109.335 69.7251 109.592 69.7251 109.807 69.7536C110.021 69.7822 110.221 69.825 110.436 69.8392C110.85 69.8963 111.279 69.9391 111.694 69.9676C112.538 70.0389 113.381 70.096 114.225 70.1388L115.497 70.1958C115.926 70.2243 116.355 70.2386 116.784 70.2529Z" fill="#FA996E"/>
<path d="M143.391 68.5673C143.077 68.553 142.748 68.5388 142.433 68.5245C142.119 68.5102 141.79 68.496 141.475 68.4674C140.832 68.4246 140.203 68.4532 139.574 68.553C139.259 68.6101 138.959 68.6814 138.659 68.767C138.359 68.8668 138.044 68.9667 137.729 69.038C137.086 69.1806 136.428 69.2234 135.785 69.1806C134.498 69.1093 133.226 69.0095 131.939 68.9524C131.296 68.9239 130.652 68.9096 130.009 68.8811L128.079 68.8383H128.093C126.949 68.9809 125.791 69.0237 124.633 69.038C123.475 69.038 122.317 68.9952 121.173 68.8811C120.029 68.767 118.886 68.553 117.77 68.2677L117.556 68.2107L117.456 68.1822L117.356 68.1679C117.227 68.1536 117.098 68.1536 116.97 68.1822C116.712 68.2535 116.498 68.4389 116.383 68.6814C116.326 68.7955 116.298 68.9381 116.298 69.0665C116.298 69.1949 116.341 69.3375 116.383 69.4659C116.469 69.7369 116.598 69.9937 116.784 70.2076L116.77 70.2219C116.569 70.0222 116.412 69.7654 116.312 69.4944C116.255 69.3661 116.212 69.2234 116.198 69.0665C116.183 68.9096 116.198 68.7527 116.269 68.6101C116.383 68.3248 116.627 68.0966 116.927 67.9967C117.07 67.9539 117.241 67.9254 117.399 67.9539L117.513 67.9682L117.613 67.9967L117.828 68.0395C118.943 68.2963 120.072 68.4532 121.216 68.5673C122.36 68.6671 123.504 68.7385 124.647 68.7527C125.791 68.7527 126.935 68.7242 128.079 68.6386H128.093L130.009 68.7527C130.652 68.7812 131.296 68.824 131.939 68.8526C133.226 68.9096 134.513 68.9096 135.785 68.9381C136.414 68.9524 137.043 68.9096 137.672 68.767C137.987 68.7099 138.273 68.6101 138.587 68.5245C138.902 68.4389 139.216 68.3676 139.545 68.3105C140.189 68.2107 140.846 68.2107 141.49 68.282C141.804 68.3105 142.133 68.3533 142.448 68.3819C142.762 68.4246 143.091 68.4532 143.406 68.496L143.391 68.5673Z" fill="#FA996E"/>
<path d="M116.929 70.3918C117.057 70.62 117.243 70.8197 117.429 70.9909C117.615 71.1763 117.829 71.3332 118.03 71.4901C118.459 71.8039 118.916 72.0607 119.388 72.2889C119.86 72.5171 120.36 72.7168 120.846 72.888C121.347 73.0591 121.847 73.2303 122.362 73.3729C123.391 73.6582 124.449 73.8151 125.507 73.8864C126.565 73.9578 127.637 73.9863 128.696 73.9863H128.71H128.724C129.296 74.0861 129.882 74.186 130.454 74.2716C131.026 74.3714 131.612 74.457 132.184 74.5426C132.77 74.6282 133.342 74.7137 133.928 74.7851C134.515 74.8564 135.086 74.9134 135.673 74.9562V74.9847C135.086 75.0133 134.5 74.999 133.914 74.9705C133.328 74.942 132.742 74.8849 132.155 74.8136C131.569 74.7423 130.983 74.671 130.411 74.5711C129.825 74.4855 129.253 74.3714 128.681 74.2573H128.71C127.637 74.2288 126.565 74.1575 125.507 74.0148C124.449 73.8722 123.391 73.7153 122.347 73.5013C121.304 73.2874 120.26 73.0021 119.288 72.5029C118.802 72.2604 118.344 71.9751 117.93 71.6328C117.729 71.4616 117.529 71.2762 117.343 71.0622C117.172 70.8625 117 70.6343 116.9 70.3918H116.929Z" fill="#FA996E"/>
<path d="M150.469 82.4202C149.325 81.707 148.181 81.0224 147.037 80.3234C146.465 79.9668 145.893 79.6245 145.307 79.3107C144.707 78.9969 144.106 78.7259 143.463 78.5119C142.834 78.298 142.19 78.1268 141.533 77.9842C141.204 77.9128 140.875 77.8558 140.546 77.813C140.203 77.7559 139.874 77.6846 139.545 77.599C138.888 77.3994 138.259 77.1426 137.672 76.786C137.086 76.4294 136.572 75.973 136.143 75.4452L136.157 75.4309C137.129 76.3581 138.344 76.9572 139.617 77.3138C139.931 77.3994 140.26 77.4707 140.589 77.5277C140.918 77.5848 141.261 77.6561 141.576 77.7417C142.233 77.8986 142.877 78.1125 143.506 78.3836C143.82 78.5119 144.121 78.6546 144.421 78.8115L145.321 79.2536L146.237 79.6958C146.537 79.8527 146.837 79.9954 147.137 80.1523C147.723 80.4661 148.295 80.8369 148.853 81.2078C149.411 81.5929 149.954 81.9923 150.469 82.4202V82.4202Z" fill="#FA996E"/>
<path d="M108.722 72.1859C108.893 72.5283 109.151 72.8421 109.437 73.1131C109.722 73.3841 110.037 73.6123 110.366 73.812C111.038 74.2114 111.781 74.4539 112.553 74.625C113.311 74.7819 114.098 74.8818 114.884 74.9103C115.67 74.9388 116.471 74.896 117.243 74.7819C117.815 74.8247 118.387 74.8818 118.973 74.9103L120.703 75.0244C121.275 75.0672 121.861 75.11 122.433 75.1528L124.163 75.2954H124.177H124.191C124.463 75.3525 124.735 75.4096 125.006 75.4666C125.278 75.5237 125.55 75.5665 125.836 75.6235C126.393 75.7234 126.937 75.8089 127.494 75.8803C128.052 75.9516 128.609 76.0229 129.167 76.0799C129.725 76.137 130.282 76.1655 130.84 76.1941V76.2226C130.282 76.2511 129.71 76.2654 129.153 76.2368C128.595 76.2226 128.023 76.1798 127.466 76.1227C126.908 76.0657 126.35 75.9944 125.793 75.9088C125.235 75.8232 124.678 75.7234 124.134 75.595H124.149L122.419 75.4238C121.847 75.3668 121.275 75.3097 120.703 75.2527L118.987 75.053C118.415 74.9816 117.843 74.9246 117.272 74.8675H117.286C116.499 74.9674 115.713 75.0387 114.912 75.0672C114.112 75.0957 113.311 75.0387 112.525 74.8675C112.139 74.7819 111.753 74.6678 111.367 74.5252C110.995 74.3683 110.623 74.1971 110.294 73.9832C109.951 73.7692 109.651 73.4982 109.365 73.2129C109.093 72.9134 108.865 72.5853 108.722 72.2002V72.1859Z" fill="#FA996E"/>
<path d="M107.447 75.7312L110.621 75.7026C111.15 75.6884 111.679 75.6884 112.208 75.6884C112.737 75.6884 113.266 75.7026 113.795 75.6884C114.496 75.7597 115.196 75.8025 115.897 75.8167C116.598 75.831 117.298 75.831 117.999 75.8453C118.699 75.8453 119.4 75.8595 120.1 75.8453H122.202H122.216C122.76 75.9166 123.303 75.9879 123.846 76.0877C124.39 76.1733 124.933 76.2589 125.476 76.3588V76.3873C124.919 76.3588 124.375 76.316 123.832 76.2732C123.289 76.2304 122.731 76.1733 122.188 76.1305H122.202C121.502 76.1591 120.801 76.1733 120.1 76.1591C119.4 76.1448 118.699 76.1305 117.999 76.0877C117.298 76.0592 116.598 76.0022 115.897 75.9451C115.196 75.8881 114.496 75.8453 113.795 75.8025H113.81C113.281 75.8453 112.752 75.8881 112.223 75.9166C111.694 75.9451 111.165 75.9594 110.636 75.9594C110.107 75.9594 109.578 75.9451 109.049 75.9166C108.52 75.8881 107.991 75.8453 107.462 75.7739L107.447 75.7312Z" fill="#FA996E"/>
<path d="M162.179 85.844C162.365 85.5587 162.523 85.2734 162.651 84.9739C162.78 84.6743 162.88 84.3605 162.952 84.0467C162.966 83.9611 162.98 83.8898 162.994 83.8042L163.023 83.6901C163.023 83.6473 163.037 83.6045 163.037 83.576C163.052 83.4904 163.066 83.4191 163.066 83.3335C163.066 83.2479 163.08 83.1766 163.08 83.091L163.094 82.9627V82.8343L163.109 82.5918C163.109 82.4206 163.094 82.2637 163.109 82.0926C163.166 82.2495 163.209 82.4206 163.252 82.5775C163.28 82.7487 163.309 82.9199 163.309 83.091C163.338 83.4334 163.295 83.7757 163.223 84.118C163.137 84.4604 163.023 84.7884 162.851 85.088C162.68 85.3733 162.451 85.6585 162.179 85.844Z" fill="#FA996E"/>
<path d="M192.059 129.988C192.417 130.844 192.774 131.685 193.175 132.512C193.561 133.354 193.975 134.181 194.404 134.994C195.262 136.62 196.163 138.232 197.163 139.773C198.15 141.327 199.222 142.825 200.395 144.252C201.553 145.678 202.825 147.019 204.212 148.245C203.855 147.946 203.483 147.675 203.154 147.361C202.983 147.204 202.811 147.061 202.639 146.905L202.139 146.434C201.481 145.778 200.838 145.107 200.237 144.408C199.623 143.71 199.065 142.982 198.507 142.226C197.964 141.484 197.435 140.714 196.935 139.944C196.434 139.159 195.963 138.375 195.505 137.562C195.047 136.749 194.619 135.936 194.204 135.108C193.804 134.281 193.418 133.44 193.046 132.584C192.86 132.156 192.688 131.728 192.531 131.3C192.36 130.858 192.202 130.416 192.059 129.988Z" fill="#FA996E"/>
<path d="M46.4384 63.0801C54.6451 55.2778 67.6414 55.5916 75.4621 63.779C81.3526 69.9409 82.6251 78.813 79.3939 86.1446L85.6704 92.9912L74.7615 92.7202C66.5548 100.523 53.5585 100.209 45.7378 92.0213C37.9171 83.8339 38.2317 70.8824 46.4384 63.0801Z" fill="white"/>
<path d="M85.6735 93.0111C85.1731 92.412 84.6727 91.8272 84.158 91.2566C83.6433 90.6718 83.1286 90.1013 82.5996 89.5307C82.0706 88.9601 81.5559 88.3896 81.0126 87.8333C80.4836 87.277 79.9403 86.7207 79.397 86.1644C79.8974 86.7635 80.3978 87.3483 80.9125 87.9189C81.4272 88.5037 81.9419 89.0743 82.4709 89.6448C82.9999 90.2154 83.5146 90.7859 84.0579 91.3422C84.5726 91.8985 85.1159 92.4548 85.6735 93.0111Z" fill="#1B1A2E"/>
<path d="M74.7485 92.7432C75.6636 92.8002 76.5643 92.843 77.4793 92.8858C78.3944 92.9286 79.2951 92.9429 80.2101 92.9714C81.1252 92.9857 82.0259 93.0142 82.9409 93.0142C83.856 93.0285 84.7567 93.0285 85.6717 93.0142C84.7567 92.9571 83.856 92.9143 82.9409 92.8716C82.0259 92.8288 81.1252 92.8145 80.2101 92.786C79.2951 92.7717 78.3944 92.7432 77.4793 92.7432C76.5786 92.7289 75.6636 92.7289 74.7485 92.7432Z" fill="#1B1A2E"/>
<path d="M79.3963 86.15C79.8967 84.9946 80.3113 83.8108 80.5973 82.5841C80.8832 81.3574 81.0691 80.1164 81.1263 78.847C81.255 76.3365 80.9118 73.7976 80.1255 71.4013C79.3391 69.0049 78.0952 66.7655 76.4939 64.8114C74.8783 62.8715 72.9339 61.2026 70.7178 59.9617C69.6169 59.3341 68.4588 58.8206 67.2578 58.4069C66.0568 57.9933 64.8273 57.708 63.5691 57.5226C61.067 57.1517 58.4935 57.2516 56.0201 57.8079C53.5466 58.3499 51.1732 59.3769 49.0715 60.789C48.0135 61.4879 47.027 62.301 46.1263 63.1853C45.2255 64.0697 44.382 65.0253 43.6671 66.0666C42.2088 68.1348 41.1508 70.4741 40.536 72.9275C39.9212 75.3809 39.7782 77.9483 40.0928 80.4588C40.393 82.9692 41.1937 85.4226 42.3946 87.6477C43.5956 89.8729 45.2112 91.8698 47.1271 93.5244C49.0429 95.1647 51.2733 96.4485 53.661 97.29C56.0487 98.1316 58.5793 98.531 61.1099 98.4597C63.6406 98.3883 66.1426 97.8463 68.4731 96.8621C70.8036 95.8922 72.9339 94.4801 74.7497 92.7399C72.9196 94.4658 70.775 95.8494 68.4445 96.7908C66.114 97.7465 63.612 98.26 61.1099 98.3028C58.5936 98.3598 56.0773 97.9462 53.7182 97.1046C51.3591 96.263 49.1573 94.9793 47.2701 93.339C46.3264 92.5259 45.4543 91.613 44.6679 90.6431C43.8816 89.6732 43.1953 88.6176 42.5948 87.5193C41.4081 85.3227 40.6361 82.8979 40.3358 80.416C40.0356 77.9341 40.1928 75.4094 40.7933 72.9845C41.3938 70.5597 42.4518 68.2489 43.8959 66.2092C44.6107 65.1822 45.4257 64.2408 46.3264 63.3565C47.2272 62.4864 48.1994 61.6876 49.2288 60.9887C51.3019 59.5908 53.6324 58.5781 56.0773 58.0361C58.5221 57.4798 61.067 57.3942 63.5405 57.7508C66.0139 58.1074 68.4302 58.9204 70.6177 60.1329C72.8052 61.3453 74.7497 62.9999 76.3653 64.9112C77.9666 66.8368 79.2104 69.062 80.0111 71.4298C80.8118 73.7976 81.1692 76.3223 81.0691 78.8327C81.0119 80.0879 80.8403 81.3289 80.5687 82.5555C80.2828 83.8108 79.8967 84.9946 79.3963 86.15Z" fill="#1B1A2E"/>
<path d="M70.7154 85.5195L67.041 81.8537C66.8265 81.6397 66.5406 81.5399 66.2689 81.5541L63.581 78.8725C65.6113 76.3764 65.454 72.6821 63.1235 70.3571C61.9225 69.1589 60.3069 68.4885 58.6055 68.4885C56.9041 68.4885 55.2885 69.1446 54.0876 70.3571C52.8866 71.5552 52.2146 73.167 52.2146 74.8644C52.2146 76.5618 52.8723 78.1736 54.0876 79.3718C55.2885 80.5699 56.9041 81.2403 58.6055 81.2403C60.0782 81.2403 61.4793 80.7411 62.6231 79.8282L65.311 82.5098C65.2967 82.7808 65.3968 83.0661 65.6113 83.28L69.2857 86.9458C69.4859 87.1455 69.7432 87.2454 70.0006 87.2454C70.2579 87.2454 70.5153 87.1455 70.7154 86.9458C71.1015 86.5607 71.1015 85.9188 70.7154 85.5195ZM55.0598 78.4446C54.1019 77.489 53.5872 76.2337 53.5872 74.8929C53.5872 73.5521 54.1162 72.2827 55.0598 71.3412C56.0177 70.3856 57.2759 69.8721 58.6198 69.8721C59.9638 69.8721 61.2363 70.3998 62.1799 71.3412C64.1386 73.2954 64.1386 76.4905 62.1799 78.4446C61.222 79.4003 59.9638 79.9138 58.6198 79.9138C57.2759 79.9138 56.0034 79.386 55.0598 78.4446Z" fill="#1F4068"/>
</svg>
